<?xml version="1.0" encoding="iso-8859-1"?>
<!-- Generator: Adobe Illustrator 16.0.0, SVG Export Plug-In . SVG Version: 6.00 Build 0)  -->
<!DOCTYPE svg PUBLIC "-//W3C//DTD SVG 1.1//EN" "http://www.w3.org/Graphics/SVG/1.1/DTD/svg11.dtd">
<svg version="1.1" id="Layer_3" xmlns="http://www.w3.org/2000/svg" xmlns:xlink="http://www.w3.org/1999/xlink" x="0px" y="0px"
	 width="530px" height="460px" viewBox="0 0 530 460" style="enable-background:new 0 0 530 460;" xml:space="preserve">
<g>
	<path style="fill-rule:evenodd;clip-rule:evenodd;fill:#FFFFFF;" d="M408.561,52.484c1.643,0.518,2.779,1.483,2.906,3.321
		c0.029,0.426,0.164,0.77,0.549,0.987c1.091-0.326,1.818,0.419,2.599,0.923c21.175,13.675,41.131,28.992,60.64,44.919
		c8.419,6.872,16.663,13.951,24.349,21.623c7.293,7.279,14.099,15.028,20.054,23.47c0.798,1.131,1.822,1.713,3.033,2.146
		c1.128,0.457,1.592,1.466,2.06,2.473c-0.092,1.208,0.038,2.316,0.637,3.456c3.585,6.823,1.594,14.701-4.713,19.073
		c-3.049,2.113-6.353,3.735-9.848,4.91c-22.285,7.494-44.508,15.197-67.412,20.672c-5.988,1.432-11.983,2.837-18.06,3.864
		c-3.146,0.532-3.592,0.128-2.858-3.095c1.693-7.439,4.46-14.523,7.505-21.485c3.59-8.208,7.668-16.182,11.945-24.057
		c1.315-2.423,2.844-3.647,5.787-3.632c2.678,0.014,5.431-0.17,8.103-0.674c2.337-0.441,4.25,0.107,5.791,1.965
		c1.33,1.604,2.935,2.943,4.433,4.384c0.443,0.427,0.904,0.947,1.671,0.657c0.313-0.781-0.26-1.225-0.705-1.622
		c-7.384-6.573-12.368-15.035-18.099-22.911c-4.521-6.214-9.468-12.073-14.748-17.657c-13.711-14.5-28.916-27.334-44.378-39.885
		c-1.242-1.008-2.436-2.125-4.231-1.905c-0.945-0.206-1.021-1.293-1.753-1.716c-2.314-1.251-4.852-1.609-7.408-1.731
		c-6.727-0.322-13.405,0.296-20.079,1.085c-5.64,0.667-11.309,0.954-16.921-0.174c-3.652-0.734-7.126-0.317-10.622,0.795
		c-2.355,0.75-4.691,1.63-7.147,2.004c-1.082,0.164-2.354,0.322-3.032-0.846c-0.687-1.18-0.188-2.333,0.506-3.365
		c1.072-1.593,2.659-2.487,4.395-3.189c6.693-2.707,13.635-4.577,20.656-6.184c0.312-0.072,0.628-0.125,0.939-0.195
		c7.562-1.704,10.08-5.876,8.063-13.355c-0.652-2.419-0.629-2.499,1.976-2.58c1.313-0.041,2.331-0.571,3.135-1.51
		c0.994-1.161,2.096-1.467,3.617-1.125c2.755,0.618,4.408-0.079,5.261-2.79c1.023-3.253,4.303-4.66,5.576-7.631
		c0.269-0.625,1.168-0.803,1.853-1.02c2.338-0.74,3.305-2.599,3.348-4.768c0.062-3.13-1.617-5.872-2.297-8.886
		c-1.143,0.902-0.802,1.9-0.557,2.855c0.396,1.548,1.113,3.008,1.363,4.594c0.279,1.778-0.02,3.51-1.756,4.344
		c-1.729,0.831-2.864-0.529-3.798-1.724c-3.099-3.965-5.491-8.255-5.684-13.455c-0.078-2.11,0.392-4.044,2.376-5.152
		c1.855-1.036,3.618-0.295,5.17,0.773c3.18,2.187,6.617,3.841,10.106,5.461c7.164,3.326,12.054,9.057,16.015,15.7
		c3.214,5.39,5.374,11.239,7.451,17.119C406.91,49.408,407.547,51.028,408.561,52.484z"/>
	<path style="fill-rule:evenodd;clip-rule:evenodd;fill:#A296A8;" d="M182.425,14.583c1.172-1.228,2.991-0.91,4.305-1.799
		c1.288,0.522,2.463,0.345,3.627-0.429c1.464-0.974,3.066-1.718,4.604-2.571c9.58-5.316,18.786-4.371,27.903,1.297
		c7.641,4.75,14.787,10.14,21.164,16.44c9.721,9.605,17.742,20.548,24.328,32.533c2.503,4.555,4.819,9.196,7.001,13.918
		c3.112,6.739,7.836,12.396,12.591,18.028c4.129,4.89,6.621,10.523,6.948,17.005c0.109,2.171-0.398,4.288-0.577,6.434
		c-0.098,1.172-0.082,2.215,0.611,3.188c-0.571,1.978-1.515,3.734-3.085,5.113c-1.376,0.094-2.43,0.702-3.081,1.941
		c-4.456,8.474-12.284,10.753-20.989,11.482c-5.088,0.427-10.138,1.045-15.012,2.752c-2.444,0.856-4.344,2.657-6.756,3.516
		c-1.921-0.779-4.303-0.616-5.589-2.709c0.093-1.343,1.163-2.033,1.969-2.882c7.304-7.694,9.654-16.983,8.793-27.297
		c-0.4-4.797-1.664-9.399-3.211-13.941c-0.553-1.625-1.327-2.879-3.135-3.203c-0.886-1.4-1.188-2.953-1.196-4.582
		c0.299-1.016,1.191-1.465,1.979-1.988c1.36-0.905,2.355-2.118,3.268-3.454c0.999-1.465,1.019-2.621-0.716-3.473
		c-0.241-0.731-0.027-1.372,0.39-1.973c1.293-0.75,2.149,0.233,2.948,0.897c1.902,1.58,3.673,3.309,5.155,5.312
		c0.442,0.598,0.93,1.821,1.682,1.284c0.956-0.684-0.138-1.575-0.59-2.201c-1.831-2.533-3.975-4.779-6.581-6.541
		c-0.731-0.495-1.485-0.946-1.853-1.808c-0.234-0.701-0.226-1.394,0.063-2.077c1.442-1.22,1.351-2.489,0.271-3.941
		c-1.1-1.481-2.205-2.953-3.825-3.874c-2.291-1.301-4.61-1.186-6.728,0.376c-1.832,1.351-3.058,3.046-2.142,5.52
		c-0.349,1.552-1.542,2.21-2.873,2.729c-3.302,0.364-6.599,0.497-9.826-0.5c-1.161-0.358-2.309-0.444-3.491-0.196
		c-3.115-0.834-4.508-2.223-4.702-4.681c0.591-0.6,1.39-0.744,2.152-0.971c0.747-0.223,1.557-0.336,2.05-1.079
		c-0.533-0.986-1.29-0.478-1.902-0.356c-12.846,2.551-23.825-0.88-32.971-10.234c-1.955-1.999-3.911-3.986-6.36-5.415
		c-2.872-1.675-5.898-1.835-9.023-1.002c-2.282,0.608-3.491,2.396-4.516,4.346c-4.62,3.748-6.975,8.512-6.521,14.538
		c-0.984,0.851-1.274,1.948-1.24,3.213c0.111,4.102,0.886,8.064,2.357,11.896c0.363,0.945,1.044,1.581,1.818,2.159
		c1.082,1.229,1.378,2.788,1.805,4.292c-0.14,1.171,0.338,2.074,1.227,2.801c1.887,6.318,4.494,12.347,7.303,18.295
		c0.507,1.074,1.105,2.105,1.535,3.218c1.461,8.16,6.88,13.687,12.676,18.93c2.963,2.682,6.221,5.011,9.46,7.347
		c6.124,4.417,12.616,6.541,19.941,2.946c1.368-0.671,2.493-0.311,3.322,0.933c2.685,4.028,4.9,8.259,5.23,13.208
		c0.094,1.407,0.499,2.483,1.869,3.038c0.581,1.017,1.925,1.281,2.391,2.415c-0.654,0.951-1.679,0.854-2.606,0.821
		c-2.471-0.087-4.903,0.712-7.392,0.25c-0.953-0.177-1.606,0.59-2.341,1.051c-1.621,0.318-2.49-0.492-2.927-1.951
		c0.482-1.7-0.327-2.285-1.922-2.346c-5.167-0.196-10.143,0.611-14.869,2.75c-1.739,0.787-3.452,1.638-5.123,2.558
		c-3.752,2.065-7.635,2.669-11.71,1.129c-1.316-0.498-2.14-0.266-2.425,1.197c-0.555,0.549-1.283,0.642-1.949,0.461
		c-1.397-0.378-2.576,0.108-3.754,0.719c-6.639-0.601-11.62-3.942-15.395-9.3c-0.554-0.787-0.8-1.982-2.255-1.925
		c-0.284,1.083,0.381,1.849,0.869,2.606c1.439,2.229,3.21,4.154,5.324,5.785c0.722,0.557,2.004,0.879,1.581,2.289
		c-2.193,0.569-3.938-0.66-5.76-1.485c-1.284-0.582-2.364-1.543-3.624-2.192c-2.952-3.681-3.833-7.966-3.403-12.529
		c0.429-4.549,2.201-8.784,3.425-13.145c0.519-1.847,0.857-3.722,1.038-5.623c0.094-0.991,0.186-2.042-0.62-2.868
		c-1.036,0.403-0.778,1.445-1.298,2.013c-0.963,0.575-1.251-0.314-1.623-0.821c-0.802-1.093-1.386-2.314-1.832-3.599
		c-0.13-1.077,0.317-2.039,0.613-3.029c2.102-7.029,1.945-14.037-0.211-21.02c-0.732-2.37-1.502-4.74-2.569-6.975
		c-3.54-7.414-3.645-15.139-2.163-22.994c1.224-6.484,3.45-12.641,6.465-18.508c0.594-1.156,1.154-2.291,0.854-3.642
		c0.049-0.908,0.505-1.654,0.96-2.401c2.274-2.029,3.274-4.885,4.736-7.429c4.223-7.345,8.26-14.8,14.475-20.764
		c2.545-2.441,5.398-4.28,8.885-4.903C181.576,16.664,182.146,15.844,182.425,14.583z"/>
	<path style="fill-rule:evenodd;clip-rule:evenodd;fill:#5B3E3A;" d="M182.425,14.583c0.84,1.915,0.629,2.499-1.289,2.76
		c-3.809,0.52-6.874,2.409-9.612,4.953c-1.996,1.853-3.688,3.971-5.263,6.186c-4.399,6.185-8.251,12.696-11.629,19.491
		c-0.493,0.992-0.838,2.139-2.267,2.139c-1.048,0.252-1.331-0.589-1.317-1.224c0.036-1.771-0.845-1.48-1.975-1.11
		c-6.16,2.016-12.177,4.396-18.108,7.001c-9.46,4.155-18.464,9.149-27.255,14.565c-2.371,1.46-3.733,3.012-3.705,6.046
		c0.031,3.412-0.827,6.812-1.467,10.187c-0.342,1.808,0.152,2.534,2.046,2.879c5.562,1.014,10.695,2.918,13.624,8.296
		c1.367,2.51,2.21,5.162,1.364,8.052c-0.863,2.951-2.718,3.996-5.668,3.126c-2.835-0.835-5.608-1.872-8.495-2.55
		c-2.583-0.607-5.175-0.903-7.835-0.891c-1.878,0.009-3.2,0.563-4.042,2.333c-0.758,1.594-1.858,2.982-3.242,4.116
		c-0.88,0.583-1.802,0.81-2.595-0.065c-0.836-0.923-0.603-1.958,0.055-2.859c0.742-1.016,1.177-1.973,0.776-3.314
		c-0.47-1.571,0.662-2.336,1.932-2.835c3.567-1.404,7.248-1.888,11.062-1.344c3.896,0.555,7.666,1.586,11.395,2.813
		c2.507,0.825,3.247,0.122,2.615-2.481c-0.572-2.355-1.945-4.16-3.964-5.511c-2.946-1.971-6.302-2.668-9.711-3.214
		c-0.789-0.126-1.591-0.166-2.371-0.353c-2.689-0.646-2.913-1.46-1.896-4.076c1.874-4.82,2.546-9.955,2.362-15.049
		c-0.12-3.33-2.788-5.63-5.344-7.626c-0.992-0.775-1.818-0.201-2.413,0.685c-2.164,3.227-3.728,6.712-4.277,10.583
		c-0.232,1.637,0.184,3.187,1.149,4.547c0.47,0.662,1.053,1.313,1.94,1.216c0.961-0.104,1.157-0.996,1.4-1.751
		c0.348-1.083,0.273-2.213,0.338-3.33c0.112-1.936,0.397-3.842,1.683-5.4c0.872-1.057,2.006-1.813,3.338-0.959
		c1.384,0.888,0.773,2.079,0.084,3.134c-1.253,1.919-0.935,4.174-1.341,6.269c-0.276,1.423-0.48,2.842-1.254,4.094
		c-1.458,2.356-3.726,3.216-6.153,1.918c-2.117-1.131-3.481-0.569-5.061,0.947c-2.704,2.598-4.882,5.484-6.11,9.049
		c-0.156,0.453-0.356,0.891-0.595,1.309c-0.537,0.94-1.303,1.442-2.386,1.059c-1.085-0.385-1.409-1.311-1.201-2.333
		c0.417-2.052,1.237-3.966,2.31-5.76c0.78-1.304,1.655-2.546,2.661-3.693c0.933-1.063,0.57-1.869-0.712-1.979
		c-1.585-0.136-3.237-0.551-4.758-0.276c-2.671,0.482-5.206,0.75-7.909-1.427c-0.139,8.073-2.113,15.546,1.318,22.775
		c0.454,0.957,0.647,1.986,0.031,2.988c-0.808,0.661-1.758,0.636-2.414-0.008c-1.336-1.312-2.091-0.391-2.908,0.543
		c-4.321,4.939-8.392,10.08-12.212,15.414c-13.002,18.158-22.906,37.879-29.619,59.179c-4.315,13.691-7.116,27.691-8.623,41.985
		c-1.145,10.855-1.223,21.738-0.745,32.574c0.745,16.905,3.747,33.505,8.71,49.72c3.589,11.728,8.056,23.108,13.661,34.016
		c8.521,16.582,18.984,31.824,31.484,45.696c11.794,13.089,25.058,24.436,39.652,34.237c6.372,4.279,12.966,8.221,19.833,11.684
		c17.65,9.843,36.663,15.752,56.398,19.581c0.628,0.122,1.266,0.192,1.892,0.32c1.439,0.296,1.982-0.125,1.944-1.723
		c-0.142-6.076,0.197-12.134,1.398-18.108c1.056-5.255,2.448-10.429,3.938-15.576c0.156-0.537,0.337-1.068,0.584-1.572
		c0.456-0.929,1.104-1.638,2.238-1.385c1.139,0.255,1.429,1.182,1.426,2.213c-0.004,1.379-0.443,2.676-0.838,3.976
		c-3.036,10.001-4.833,20.185-4.85,30.675c-0.003,2.073,0.673,2.718,2.663,2.992c5.463,0.751,10.974,1.013,16.439,1.747
		c8.893,0.354,17.782,0.214,26.671,0.031c0.426-0.033,0.817-0.224,1.235-0.295c2.605-0.084,5.203-0.292,7.79-0.618
		c1.958,0.034,3.853-0.457,5.775-0.721c0.248-0.075,0.502-0.122,0.758-0.155c1.138-0.107,2.303,0.026,3.406-0.394
		c12.476-1.96,24.675-5.021,36.599-9.181c0.602-0.211,1.215-0.392,1.844-0.504c1.116-0.159,2.214-0.372,3.123-1.119
		c2.144-1.084,4.409-1.879,6.65-2.713c1.639-0.609,2.389-1.456,1.735-3.227c-0.275-0.745-0.272-1.584-0.535-2.332
		c-3.726-10.606-2.358-21.264-0.352-31.93c0.93-4.941,1.947-9.856,2.007-14.933c0.028-2.371-0.536-4.53-1.232-6.714
		c1.241-1.886,2.727-2.045,4.152-0.403c1.061,1.221,1.216,2.732,1.283,4.273c0.231,5.314-0.492,10.54-1.613,15.703
		c-1.687,7.774-2.545,15.602-2.247,23.565c0.155,4.153,1.778,7.937,2.673,11.899c0.343,1.516,1.449,0.818,2.293,0.405
		c7.542-3.693,15.026-7.487,22.142-11.976c12.277-7.745,23.659-16.598,34.185-26.623c15.882-15.128,28.968-32.336,39.528-51.526
		c12.207-22.185,19.831-45.883,23.463-70.887c1.725-11.88,2.451-23.851,2.001-35.846c-0.137-3.652-0.138-7.348-0.717-10.987
		c-0.4-2.518-0.384-2.519-2.788-2.021c-7.595,1.572-15.156,3.303-22.774,4.767c-4.162,0.8-8.306,1.741-12.504,2.284
		c-9.052,1.172-16.095,6.026-23.026,11.54c-7.079,5.632-11.69,12.806-15.192,20.897c-3.368,7.784-7.353,15.272-11.062,22.889
		c-10.64,21.853-21.151,43.771-32.146,65.451c-3.459,6.822-5.756,14.046-6.508,21.707c-0.117,1.195-0.109,2.465-1.604,2.902
		c-1.979-0.088-2.208-1.415-2.209-3.005c-0.005-5.372,1.449-10.434,3.272-15.404c2.708-7.379,6.397-14.31,10.018-21.257
		c3.659-7.022,7.12-14.144,10.504-21.292c3.25-6.866,6.629-13.673,9.95-20.501c5.245-10.786,10.318-21.66,15.843-32.312
		c0.813-1.565,1.505-3.185,2.159-4.814c3.663-9.122,10.638-15.371,18.066-21.342c6.619-5.319,14.043-8.373,22.378-9.701
		c12.245-1.951,24.348-4.661,36.443-7.38c4.694-1.055,8.515-3.477,11.53-7.264c2.469-3.102,4.32-6.525,5.83-10.158
		c0.5-1.203,0.562-2.076-1.241-1.645c-5.134,1.228-10.292,2.348-15.499,3.22c-1.563,0.262-2.145,1.127-2.117,2.648
		c0.055,3.109,0.118,6.15,3.595,7.687c1.021,0.451,1.688,1.372,1.094,2.542c-0.546,1.074-1.593,1.212-2.706,0.985
		c-2.744-0.558-5.295-3.865-5.688-6.997c-0.878-7.007,0.547-13.704,2.712-20.261c4.987-15.099,11.922-29.312,19.939-43.015
		c1.732-2.533,1.726-2.506,4.823-1.699c1.488,0.388,3.026,0.327,4.514,0.004c1.484-0.322,3.009-0.181,4.927-0.42
		c-1.704-2.92-3.666-5.305-5.354-7.859c-9.041-13.685-20.338-25.419-32.211-36.586c-9.649-9.074-19.886-17.501-30.228-25.786
		c-0.812-0.65-1.656-1.273-2.263-2.123c-0.472-0.662-1.165-1.393-0.093-2.154c1.259-1.087,2.167-0.256,3.121,0.537
		c6.456,5.366,12.972,10.662,19.374,16.092c11.11,9.423,21.738,19.354,31.336,30.345c5.054,5.789,9.722,11.872,14.061,18.214
		c3.114,4.552,6.214,9.119,9.991,13.171c1.42,1.523,2.905,2.974,4.491,4.322c0.715,0.608,1.343,1.303,0.547,2.218
		c-0.753,0.866-1.571,0.503-2.311-0.117c-2.025-1.698-3.951-3.512-5.621-5.557c-0.895-1.096-1.864-1.571-3.276-1.457
		c-4.063,0.331-8.13,0.625-12.2,0.829c-1.182,0.06-1.393,0.92-1.805,1.636c-3.867,6.718-7.424,13.599-10.662,20.642
		c-3.84,8.352-7.302,16.846-9.517,25.797c-0.244,0.985-0.409,1.99-0.656,3.212c3.138-0.347,5.987-1.012,8.85-1.597
		c20.218-4.129,39.89-10.211,59.451-16.68c6.896-2.28,13.764-4.646,20.629-7.02c3.182-1.1,6.221-2.524,8.936-4.552
		c4.893-3.656,6.794-8.505,5.703-14.515c-0.304-1.673-0.925-3.231-1.95-4.593c-0.862-1.147-0.708-2.042,0.516-2.769
		c1.267,0.21,1.806,1.224,2.387,2.18c2.854,4.692,3.394,13.701-2.377,19.589c-2.682,2.736-5.907,4.607-9.39,6.092
		c-5.003,2.131-10.213,3.682-15.354,5.424c-15.353,5.199-30.766,10.208-46.435,14.388c-2.082,0.556-4.154,1.158-6.251,1.651
		c-0.862,0.203-1.148,0.495-1.43,1.459c-2.191,7.502-5.793,14.18-11.987,19.204c-1.31,1.062-2.737,1.948-4.318,2.553
		c-0.882,0.337-1.134,0.866-1.033,1.833c0.637,6.129,0.89,12.286,0.98,18.44c0.106,7.2-0.232,14.397-0.904,21.564
		c-1.262,13.475-3.589,26.772-7.531,39.73c-18.364,60.357-55.889,104.619-112.232,132.848c-18.323,9.18-37.783,15.071-58.024,18.398
		c-14.256,2.343-28.602,3.323-43.016,2.704c-44.468-1.908-84.667-16.042-120.268-42.811c-28.811-21.663-50.713-48.995-65.803-81.737
		c-7.933-17.213-13.363-35.203-16.45-53.914c-2.365-14.335-3.326-28.761-2.711-43.256c1.664-39.205,13.076-75.346,34.481-108.283
		c5.763-8.867,12.142-17.271,19.24-25.11c1.271-1.404,1.628-2.691,1.211-4.482c-0.586-2.513-0.334-5.107-0.214-7.653
		c0.192-4.072,0.597-8.133,0.912-12.198c1.436-2.042,0.483-4.266,0.531-6.423c0.042-1.833,0.335-3.671,1.093-5.374
		c1.025-2.306,2.675-3.787,5.355-3.649c0.812,0.042,1.253-0.193,1.751-0.872c2.203-3.003,4.305-3.732,7.668-2.511
		c1.379,0.501,2.47,0.493,3.806-0.132c1.958-0.916,3.956-0.382,5.717,0.69c1.039,0.633,1.704,0.624,2.324-0.439
		c0.157-0.268,0.424-0.478,0.66-0.693c1.481-1.354,2.641-1.488,4.299-0.339c2.388,1.656,4.417,3.699,6.023,6.123
		c0.771,1.163,0.785,1.504,2.407,0.45c16.513-10.733,34.188-19,53.003-24.812c1.107-0.342,1.758-0.926,2.28-1.895
		c2.654-4.933,5.636-9.665,8.885-14.227c1.72-2.416,3.557-4.742,5.764-6.732C173.386,16.892,177.385,14.536,182.425,14.583z"/>
	<path style="fill-rule:evenodd;clip-rule:evenodd;fill:#5B3E3A;" d="M294.643,118.905c-1.461-0.487-1.262-1.586-1.08-2.75
		c0.456-2.921,0.741-5.837,0.471-8.821c-0.395-4.336-1.89-8.216-4.271-11.806c-1.372-2.069-2.91-4.015-4.562-5.861
		c-4.782-5.345-8.537-11.333-11.555-17.832c-6.498-13.994-14.582-26.971-24.964-38.451c-7.554-8.351-16.052-15.565-25.689-21.414
		c-2.051-1.245-4.173-2.348-6.381-3.294c-5.389-2.31-10.828-2.433-16.353-0.506c-3.417,1.191-6.583,2.867-9.638,4.778
		c-0.542,0.339-1.058,0.733-1.633,1c-1.11,0.517-1.518,0.281-2.259-1.166c0.118-0.388,0.281-0.757,0.629-0.989
		c4.945-3.299,10.112-6.095,16.022-7.296c5.044-1.026,9.849-0.243,14.515,1.744c5.63,2.397,10.641,5.827,15.518,9.453
		c7.735,5.75,14.633,12.395,20.74,19.846c0.922,1.124,1.939,1.751,3.348,2.025c23.655,4.597,45.846,13.072,66.591,25.314
		c1.433,0.845,2.602,1.025,4.196,0.46c4.967-1.758,10.063-3.096,15.228-4.17c1.4-0.291,2.804-0.675,4.126-1.212
		c3.324-1.353,4.882-4.227,4.129-7.708c-0.764-3.533-2.642-6.479-5.309-8.882c-1.612-1.452-3.188-2.902-4.3-4.795
		c-1.554-2.648-2.16-5.488-1.692-8.521c0.295-1.915,1.017-3.5,3.203-3.992c1.492-0.335,2.321-1.149,2.43-2.95
		c0.206-3.408,1.902-4.698,5.381-4.612c0.479,0.012,0.959,0.022,1.438,0.042c0.69,0.029,0.998-0.258,0.993-0.985
		c-0.011-1.625,0.37-3.175,1.137-4.606c1.102-2.056,2.404-2.662,4.735-2.264c0.63,0.107,1.285,0.153,1.879,0.366
		c1.357,0.487,2.273,0.261,3.25-0.981c1.767-2.249,4.245-2.725,6.896-1.579c1.016,0.439,1.981,1.043,2.877,1.699
		c2.012,1.473,4.146,2.714,6.454,3.639c8.866,3.551,15.093,9.979,19.754,18.102c3.638,6.337,6.013,13.208,8.417,20.066
		c0.381,1.087,0.145,1.854-0.754,2.488c-1.28-0.079-1.646-0.994-2.015-2.036c-1.195-3.384-2.389-6.773-3.725-10.104
		c-2.722-6.79-6.126-13.176-11.358-18.433c-2.85-2.862-6.057-5.206-9.771-6.808c-3.235-1.396-6.357-2.962-9.191-5.094
		c-1.348-1.014-2.917-1.925-4.641-0.911c-1.687,0.993-2.145,2.681-2.046,4.559c0.238,4.554,2.112,8.467,4.731,12.083
		c0.703,0.97,1.42,1.947,2.395,2.667c0.986,0.73,1.781,0.591,2.4-0.44c0.693-1.156,0.792-2.405,0.372-3.695
		c-0.47-1.441-0.907-2.892-1.39-4.328c-0.287-0.854-0.315-1.725-0.275-2.605c0.034-0.732,0.428-1.211,1.149-1.317
		c0.737-0.107,1.389,0.287,1.429,0.969c0.161,2.762,1.597,5.185,2,7.866c0.521,3.462-1.217,5.968-4.722,6.746
		c-0.785,0.174-1.086,0.613-1.27,1.22c-0.532,1.766-1.381,3.248-3.267,3.83c-0.712,0.22-0.654,0.833-0.804,1.339
		c-0.318,1.075-0.676,2.13-1.282,3.083c-1.396,2.193-3.073,2.86-5.514,1.916c-1.27-0.491-2.021-0.638-2.839,0.779
		c-0.952,1.649-2.583,2.32-4.549,1.727c-0.371-0.112-0.753-0.289-1.296-0.006c0.551,1.589,1.254,3.158,1.459,4.887
		c0.557,4.678-1.509,8.35-5.85,10.158c-1.776,0.74-3.661,1.117-5.534,1.516c-6.255,1.334-12.366,3.158-18.358,5.386
		c-1.421,0.528-2.835,1.102-4.038,2.061c-1.092,0.871-1.911,1.918-2.024,3.389c-0.077,0.998,0.257,1.5,1.36,1.381
		c1.358-0.146,2.681-0.438,3.981-0.824c1.224-0.363,2.432-0.776,3.637-1.197c3.999-1.396,8.053-1.871,12.253-0.993
		c5.389,1.127,10.809,0.721,16.224,0.143c6.907-0.738,13.803-1.813,20.779-1.108c2.607,0.264,5.247,0.531,7.597,1.892
		c0.301,2.158-0.056,2.609-2.082,2.452c-1.437-0.112-2.848-0.447-4.249-0.758c-4.788-1.063-9.578-0.405-14.325,0.098
		c-6.434,0.681-12.838,1.597-19.82,1.177c3.947,3.317,7.698,6.091,11.224,9.136c16.146,13.944,30.06,29.82,41.502,47.845
		c2.916,4.594,5.681,9.277,8.225,14.083c0.827,1.563,1.971,2.145,3.667,2.1c9.347-0.245,18.707,0.453,28.049-0.411
		c1.633-0.151,3.279-0.042,3.817,2.023c0,0.289-0.068,0.556-0.201,0.812c-0.236,0.389-0.563,0.676-0.953,0.902
		c-3.836,0.904-7.778,0.876-11.656,0.939c-11.991,0.193-23.995,0.353-35.978-0.011c-11.808-0.357-23.619-0.852-35.414-1.692
		c-9.396-0.669-18.815-1.12-28.222-1.674c-10.13-0.596-20.278-0.564-30.399-1.29c-4.654-0.334-9.26,0.192-13.797,1.293
		c-1.318,0.32-2.642,0.759-3.939-0.059c-0.848-2.071-0.658-2.733,1.313-3.457c2.712-0.994,5.519-1.63,8.426-1.706
		c10.394-0.271,20.781,0.11,31.154,0.558c10.922,0.471,21.836,1.19,32.747,1.885c9.481,0.604,18.963,1.123,28.457,1.513
		c5.594,0.23,11.179,0.27,16.769,0.341c2.279,0.029,2.493-0.354,1.406-2.286c-8.021-14.267-17.348-27.586-28.354-39.746
		c-10.292-11.373-21.644-21.503-34.109-30.424c-1.938-1.387-3.843-1.747-6.081-1.14c-2.625,0.711-5.154,1.736-7.816,2.32
		c-0.858,0.188-1.701,0.47-2.58,0.542c-2.029,0.166-4.143,0.308-5.358-1.75c-1.21-2.047-0.844-4.171,0.305-6.158
		c1.104-1.909,2.788-3.246,4.661-4.392c-9.255-7.3-40.535-19.47-61.045-23.713c2.613,3.869,5.2,7.458,7.453,11.26
		c3.179,5.366,6.316,10.749,8.82,16.479c3.034,6.946,7.217,13.145,12.217,18.837c4.049,4.609,7.447,9.646,8.571,15.841
		c0.777,4.278,0.754,8.591-0.101,12.864C296.649,117.933,296.408,119.308,294.643,118.905z"/>
	<path style="fill-rule:evenodd;clip-rule:evenodd;fill:#5B3E3A;" d="M522.689,149.874c-0.954,0.597-1.791,0.542-2.48-0.426
		c-0.603-0.846-1.211-1.688-1.828-2.524c-9.643-13.063-20.89-24.63-33.219-35.131c-23.264-19.812-47.336-38.567-73.146-55
		c-0.031-0.692-0.341-1.446,0.45-1.951c0.968-0.618,1.674,0.059,2.391,0.514c7.957,5.049,15.753,10.341,23.361,15.9
		c18.064,13.198,35.729,26.909,52.485,41.747c11.455,10.142,21.906,21.229,30.885,33.656
		C522.277,147.614,523.204,148.5,522.689,149.874z"/>
	<path style="fill-rule:evenodd;clip-rule:evenodd;fill:#5D403C;" d="M369.946,46.286c2.726-0.019,5.392,0.415,8.036,1.007
		c0.54,0.121,1.082,0.29,1.58,0.527c0.654,0.313,0.873,0.881,0.698,1.596c-0.164,0.667-0.702,0.875-1.265,0.876
		c-0.548,0.001-1.105-0.142-1.642-0.283c-5.209-1.373-10.395-1.189-15.568,0.192c-0.533,0.143-1.071,0.308-1.616,0.358
		c-0.639,0.059-1.034-0.348-1.239-0.92c-0.221-0.616,0.051-1.119,0.532-1.441c0.384-0.257,0.862-0.39,1.313-0.527
		C363.766,46.762,366.831,46.356,369.946,46.286z"/>
	<path style="fill-rule:evenodd;clip-rule:evenodd;fill:#FFFFFF;" d="M440.197,150.337c0.66,0.163,1.441-0.134,1.973,0.519
		c-2.665,4.999-5.415,9.955-7.977,15.006c-5.101,10.056-9.617,20.359-12.778,31.214c-1.624,5.579-2.38,11.221-1.808,17.051
		c0.282,2.868,1.735,4.714,4.118,6.017c0.48,0.263,1.03,0.465,1.568,0.538c0.874,0.119,1.642-0.177,1.799-1.15
		c0.133-0.826-0.332-1.263-1.16-1.51c-2.195-0.654-3.479-2.019-3.609-4.473c-0.08-1.512-0.276-3.023-0.236-4.543
		c0.052-1.951,0.07-1.956,1.928-2.324c4.309-0.852,8.623-1.679,12.927-2.555c2.009-0.408,4-0.907,6.376-1.452
		c-2.692,7.618-6.09,14.267-12.779,18.649c-2.728,1.786-5.906,2.34-9.031,3.033c-12.399,2.75-24.843,5.279-37.347,7.501
		c-5.865,1.042-11.131,3.4-15.871,6.963c-4.351,3.269-8.611,6.647-12.403,10.574c-2.461,2.549-4.5,5.373-6.059,8.578
		c-12.85,26.435-25.718,52.86-38.62,79.269c-3.26,6.673-6.977,13.122-9.901,19.96c-2.744,6.417-5.002,12.963-5.226,20.05
		c-0.039,1.265,0.085,2.232,1.507,2.532c1.719,0.188,0.754,1.215,0.62,1.981c-0.473,1.381-1.325,2.482-2.474,3.37
		c-5.726,3.338-11.944,5.357-18.354,6.872c-7.005,1.654-14.026,3.242-20.999,5.026c-3.431,0.878-6.866,0.795-10.217,0.075
		c-5.756-1.236-11.503-0.621-17.192-0.06c-10.956,1.082-21.487-0.33-31.865-3.87c-13.774-4.698-22.669-14.801-30.111-26.594
		c-2.604-4.126-5.021-8.367-7.313-12.674c-0.582-1.094-1.377-1.947-2.309-2.716c-0.625-0.928-0.953-1.913-0.575-3.031
		c0.967-1.207,0.867-2.424,0.256-3.8c-6.169-13.892-10.235-28.39-12.4-43.428c-0.296-2.056-0.43-4.13-0.716-6.188
		c-0.151-1.086-0.398-2.04-1.48-2.552c-1.413-0.73-2.116-1.876-2.039-3.479c0.523-1.271,0.377-2.47-0.286-3.673
		c-2.585-4.685-3.796-9.815-4.8-15.01c-0.94-4.866-1.832-9.753-3.789-14.344c-3.208-7.526-8.305-12.845-16.809-14.033
		c-4.029-0.563-7.708-2.021-11.142-4.164c-0.973-0.886-0.737-1.941-0.43-3.009c0.179-0.697,0.349-1.396,0.357-2.121
		c0.144-12.78,0.179-25.555-1.974-38.217c-0.174-1.023-0.438-2.033-0.574-3.061c-0.248-1.865-0.939-3.324-2.854-4.055
		c-0.785-0.299-1.685-0.875-1.542-1.909c0.154-1.11,1.157-1.47,2.119-1.643c1.917-0.346,3.819-0.22,5.682,0.377
		c5.212,1.669,10.531,1.663,15.889,1.001c9.587-1.186,18.853-3.382,27.288-8.374c3.169-1.876,6.681-2.607,10.377-2.239
		c1.246,0.123,2.281,0.033,2.167-1.627c1.122-2.288,3.436-2.145,5.425-2.664c2.078,0.097,4.027,0.897,6.079,1.158
		c0.982,0.124,2.028,0.543,2.896-0.428c-0.611-1.428-2.539-0.381-3.145-1.723c1.155-0.9,2.371-1.41,3.889-0.92
		c0.568,0.184,1.235,0.064,1.857,0.083c0.638-0.361,1.256-0.118,1.844,0.11c4.862,1.891,9.46,0.915,13.843-1.432
		c4.627-2.477,9.389-4.504,14.674-4.9c2.067-0.154,4.317-0.92,6.111,0.938c0.596,1.05,1.545,1.607,2.672,1.918
		c5.678,0.85,11.293-0.008,16.915-0.638c6.654-0.745,13.371-0.988,19.931-2.477c8.183-1.856,15.885-4.774,22.53-10.08
		c1.172-0.936,2.128-1.923,2.092-3.539c1.057-1.453,1.691-0.933,2.139,0.459c0.626,0.684,1.404,0.726,2.206,0.452
		c6.193-2.124,12.585-1.876,18.979-1.62c9.819,0.393,19.644,0.698,29.458,1.199c9.415,0.48,18.817,1.197,28.229,1.746
		c9.173,0.534,18.348,1.011,27.535,1.28c16.939,0.496,33.875,0.488,50.811-0.146c0.944-0.035,1.934,0.135,2.778-0.487
		c0.093-0.212,0.343-0.326,0.364-0.583L440.197,150.337z"/>
	<path style="fill-rule:evenodd;clip-rule:evenodd;fill:#FBC4B9;" d="M279.851,148.486c-0.554-0.466-0.979-1.584-1.864-0.368
		c-0.429,0.364-0.913,0.352-1.418,0.214c-0.553-0.285-1.148-0.541-0.989-1.349c1.072-0.776,1.303-1.671,0.579-2.866
		c-0.702-1.158-1.354-2.363-1.765-3.663c-0.454-1.436-0.081-2.697,1.453-3.026c7.969-1.71,12.336-7.471,16.031-14.028
		c0.886-1.521,1.541-3.184,2.767-4.494c0.905-0.134,1.405-0.666,1.56-1.563c1.383-8.047,0.863-15.768-3.79-22.821
		c-1.899-2.88-4.088-5.532-6.344-8.124c-3.756-4.317-6.784-9.09-9.198-14.26c-5.016-10.745-10.766-21.057-17.885-30.569
		c-0.188-0.25-0.309-0.548-0.6-1.075c22.853,4.714,44.106,12.875,64.231,24.66c-1.165,0.69-2.199,1.212-3.134,1.875
		c-2.125,1.505-3.535,3.469-3.527,6.193c0.006,2.569,1.304,3.835,3.846,3.796c2.104-0.033,4.087-0.669,6.076-1.266
		c2.218-0.665,4.429-1.353,6.664-1.951c1.86-0.498,3.484-0.145,5.145,1.042c26.675,19.048,47.884,42.932,63.642,71.665
		c0.345,0.629,0.653,1.279,0.95,1.932c0.055,0.12-0.03,0.302-0.063,0.543c-1.32,0.274-2.672,0.042-4.01,0.039
		c-12.16-0.029-24.297-0.633-36.433-1.358c-16.202-0.969-32.392-2.146-48.62-2.656c-7.912-0.249-15.818-0.714-23.738-0.349
		c-2.73,0.125-5.358,0.825-7.974,1.571C280.287,146.559,279.656,147.222,279.851,148.486z"/>
	<path style="fill-rule:evenodd;clip-rule:evenodd;fill:#FBC4B9;" d="M165.836,170.509c-1.893,0.448-3.864,0.691-5.424,2.029
		c-0.503,0.517-1.152,0.55-1.786,0.441c-4.593-0.783-8.786,0.609-12.626,2.807c-7.788,4.457-16.233,6.553-25.006,7.722
		c-5.353,0.713-10.651,0.779-15.887-0.791c-1.605-0.482-3.24-0.857-4.943-0.838c-1.489,0.016-2.85,0.322-3.959,1.393
		c-0.287,0.277-0.564,0.578-0.921,0.761c-1.844,0.944-8.216-2.519-8.484-4.61c-0.081-0.635-0.091-1.277-0.058-1.914
		c0.389-7.462-0.658-14.833-1.591-22.189c-1.063-8.391-0.656-16.709,0.35-25.052c0.525-4.357,0.934-8.731,0.754-13.135
		c-0.046-1.124-0.029-2.253-0.938-3.104c-0.922-1.401,0.924-2.191,0.767-3.429c1.364-1.765,2.851-3.454,3.708-5.547
		c0.422-1.03,1.289-1.099,2.161-1.167c3.047-0.236,6.06-0.039,9.042,0.687c3.029,0.738,5.969,1.76,8.945,2.666
		c3.003,0.914,4.597-0.022,5.163-3.08c0.49-2.643-0.247-5.07-1.559-7.34c-1.804-3.12-4.587-5.061-7.874-6.333
		c-2.167-0.839-4.423-1.339-6.737-1.615c-1.54-0.183-1.573-0.285-1.325-1.85c0.523-3.313,1.078-6.62,1.596-9.933
		c0.147-0.945,0.404-1.931,0.274-2.851c-0.323-2.306,0.755-3.503,2.632-4.695c14.975-9.509,30.839-17.12,47.673-22.702
		c0.719-0.238,1.433-0.731,2.414-0.468c-0.204,1.265-1.722,2.643,0.166,3.742c-0.062,0.839-0.272,1.604-1.041,2.091
		c-2.805,3.007-4.158,6.792-5.568,10.529c-2.557,6.773-4.237,13.736-4.333,21.025c-0.054,4.137,0.767,8.099,2.264,11.938
		c1.075,2.755,2.283,5.46,3.169,8.287c3.258,10.402,2.477,20.342-3.413,29.694c-0.297,0.471-0.647,0.915-0.782,1.474
		c-0.04,0.165-0.032,0.317,0.133,0.62c1.727-0.266,2.091-1.887,2.902-3.032c0.945-1.335,1.076-3.234,2.798-4.031
		c1.257,1.271,1.546,3.142,2.759,4.44c1.014,0.923,0.599,2.057,0.438,3.135c-0.488,3.254-1.667,6.315-2.647,9.434
		c-2.115,6.733-2.211,13.335,1.419,19.658c0.396,0.69,0.749,1.463,1.439,1.885c1.068,0.652,0.994-0.127,0.898-0.834
		c-0.117-0.328-0.228-0.653-0.307-0.989c-0.038-0.237,0-0.462,0.108-0.676c1.102,0.102,1.818,0.928,2.684,1.458
		c2.051,1.259,4.198,2.2,6.634,2.348C163.688,168.276,164.991,168.932,165.836,170.509z"/>
	<path style="fill-rule:evenodd;clip-rule:evenodd;fill:#FFFFFF;" d="M275.629,147.056c0.322,0.327,0.645,0.654,0.967,0.982
		c-0.37,1.961-2.083,2.733-3.459,3.711c-7.455,5.3-15.897,8.057-24.854,9.42c-5.445,0.829-10.953,1.119-16.411,1.849
		c-1.164,0.156-2.402,0.323-3.453-0.51c-1.416,0.123-2.024-0.688-2.248-1.944c0.023-6.369-2.216-11.988-5.732-17.17
		c-0.983-1.449-0.571-2.462,0.721-3.442c2.478-1.88,5.027-3.697,6.81-6.333c0.268-0.396,0.61-0.74,0.788-1.194
		c0.124-0.316,0.14-0.638-0.14-0.868c-0.299-0.247-0.609-0.108-0.86,0.106c-0.734,0.626-1.259,1.439-1.896,2.153
		c-3.8,4.258-8.421,7.318-13.795,9.195c-4.003,1.398-7.871,0.416-11.286-1.611c-8.211-4.876-15.775-10.596-21.473-18.435
		c-1.462-2.012-2.693-4.162-3.434-6.552c-0.413-1.334-1.132-2.275-2.606-2.447c-2.784-4.58-4.554-9.618-6.572-14.544
		c-0.633-1.545-1.281-3.087-1.832-4.662c-0.247-0.706-0.826-1.434-0.25-2.254c0.321-1.489,1.678-1.765,2.761-2.364
		c0.804-0.445,1.885-0.395,2.53-1.498c-1.18-0.77-2.243-0.29-3.332,0.106c-1.097,0.398-1.941,1.434-3.25,1.287
		c-0.48-1.405-0.96-2.81-1.441-4.215c-0.079-0.787,0.079-1.631-0.251-2.354c-2.308-5.043-2.294-10.478-2.74-15.836
		c-0.596-0.316-1.016-0.701-0.892-1.486c0.697-4.408,2.139-8.476,5.353-11.723c0.492-0.497,1.058-0.986,1.828-1.06
		c1,0.059,1.804-0.243,2.594-0.943c3.357-2.976,6.698-3.227,10.527-0.944c2.148,1.281,4.038,2.874,5.708,4.719
		c6.291,6.955,14.139,10.79,23.425,11.796c2.156,0.234,4.305,0.202,6.46,0.061c0.762-0.05,1.598-0.436,2.199,0.406
		c0.897,2.027,2.685,3.119,4.449,4.234c2.877,1.939,6.109,2.576,9.509,2.585c3.813,0.01,7.627,0.013,11.441,0
		c1.851-0.007,3.643,0.301,5.375,0.917c0.874,0.312,1.88,0.55,2.009,1.75c-0.157,0.656-0.313,1.313-0.471,1.97
		c-0.226,2.469-1.754,4.123-3.546,5.591c-0.673,0.55-1.517,0.954-1.136,2.06c0.09,0.192,0.154,0.392,0.209,0.595
		c0.009,0.105,0.017,0.21,0.023,0.315c0.379,1.599,0.759,3.197,1.138,4.796c3.729,8.648,5.895,17.557,4.383,27.046
		c-1.133,7.108-4.294,13.157-9.602,18.06c-0.572,0.529-1.316,0.936-1.513,1.828c0.535,0.896,1.536-0.037,2.148,0.524
		c1.151,0.703,2.403,1.179,3.706,1.481c0.708,0.165,1.382,0.305,1.834,0.932c0.824,1.147,1.782,1.141,2.89,0.397
		c6.348-4.265,13.738-4.394,20.944-5.236c0.801-0.093,1.817-0.01,2.138,0.781C273.118,141.792,274.973,144.155,275.629,147.056z"/>
	<path style="fill-rule:evenodd;clip-rule:evenodd;fill:#5B3E3A;" d="M173.269,113.966c1.778-0.895,2.186-0.855,2.655,0.715
		c1.98,6.624,6.297,11.572,11.322,16.025c3.233,2.865,6.645,5.507,10.169,8.002c2.227,1.576,4.631,2.79,7.252,3.62
		c2.959,0.937,5.803,0.768,8.645-0.398c5.29-2.172,9.674-5.542,13.286-9.948c0.354-0.431,0.67-0.898,1.063-1.289
		c0.438-0.436,0.991-0.544,1.524-0.167c0.571,0.404,0.892,0.976,0.536,1.651c-0.333,0.63-0.757,1.219-1.197,1.782
		c-2.334,2.987-5.258,5.336-8.292,7.502c0.12,0.926,0.742,1.48,1.166,2.137c2.45,3.794,4.329,7.83,5.051,12.318
		c0.248,1.541,0.717,3.155-0.277,4.648c-2.002-0.034-2.1-0.047-2.226-2.146c-0.313-5.204-2.452-9.695-5.289-13.925
		c-0.983-1.465-1.063-1.538-2.641-0.711c-5.444,2.854-10.934,2.526-16.05-0.411c-8.857-5.084-16.793-11.358-22.811-19.77
		c-1.493-2.087-2.611-4.379-3.417-6.827C173.436,115.85,173.218,114.938,173.269,113.966z"/>
	<path style="fill-rule:evenodd;clip-rule:evenodd;fill:#5B3E3A;" d="M148.492,128.704c-0.677,1.355-1.311,2.734-2.045,4.057
		c-0.58,1.044-1.245,2.047-1.944,3.016c-0.93,1.288-1.785,1.616-2.542,1.089c-0.726-0.504-0.643-1.336,0.307-2.704
		c6.394-9.209,7.238-19.19,4.065-29.695c-0.574-1.902-1.319-3.771-2.165-5.57c-3.832-8.151-4.185-16.603-2.346-25.269
		c1.448-6.829,3.748-13.347,7.099-19.482c0.534-0.978,0.952-2.096,2.4-1.946c1.18,0.884,0.856,1.813,0.24,2.912
		c-3.14,5.609-5.378,11.572-6.751,17.852c-1.219,5.577-1.852,11.188-0.741,16.871c0.54,2.759,1.597,5.348,2.652,7.934
		c1.63,3.995,3.164,8,3.754,12.329c0.815,5.971,0.322,11.783-1.636,17.477C148.71,127.947,148.607,128.328,148.492,128.704z"/>
	<path style="fill-rule:evenodd;clip-rule:evenodd;fill:#5C3E3A;" d="M228.419,162.508c8.946-0.891,17.977-1.181,26.738-3.454
		c7.956-2.063,15.335-5.315,21.438-11.017c0.464,0.026,0.927,0.053,1.391,0.08c1.021,1.284,0.342,2.149-0.672,3.014
		c-3.987,3.401-8.469,5.964-13.314,7.908c-5.655,2.269-11.506,3.795-17.571,4.424c-7.855,0.815-15.714,1.605-23.577,2.348
		c-1.421,0.134-2.87-0.031-4.305-0.021c-0.939,0.006-1.717-0.281-2.303-1.031c0.628-1.859,0.693-1.946,2.451-1.741
		C221.97,163.401,225.195,163.001,228.419,162.508z"/>
	<path style="fill-rule:evenodd;clip-rule:evenodd;fill:#5B3E3A;" d="M216.095,68.457c-4.88,0.605-9.718,0.427-14.494-0.806
		c-6.829-1.762-12.635-5.248-17.469-10.375c-1.536-1.629-3.137-3.189-4.955-4.512c-1.308-0.952-2.71-1.709-4.321-1.958
		c-2.778-0.429-5.217,0.025-6.944,2.576c-0.96,1.419-1.295,1.358-2.729-0.017c0.616-3.103,2.871-4.498,5.646-5.14
		c3.073-0.711,6.021-0.181,8.739,1.483c2.338,1.432,4.321,3.287,6.178,5.269c4.293,4.585,9.342,7.937,15.412,9.681
		c5.715,1.642,11.463,1.867,17.252,0.415c0.464-0.117,0.929-0.234,1.397-0.33c0.818-0.169,1.438,0.092,1.65,0.938
		c0.206,0.824-0.151,1.439-0.958,1.665C219.041,67.753,217.563,68.09,216.095,68.457z"/>
	<path style="fill-rule:evenodd;clip-rule:evenodd;fill:#5B3E3A;" d="M275.629,147.056c-1.778-2.01-2.823-4.409-3.605-6.932
		c-0.263-0.85-0.571-1.38-1.621-1.229c-4.565,0.657-9.207,0.798-13.693,1.98c-2.863,0.755-5.601,1.815-7.973,3.656
		c-0.126,0.098-0.262,0.182-0.386,0.282c-0.605,0.492-1.273,0.718-1.971,0.259c-0.757-0.499-0.565-1.226-0.329-1.931
		c3.894-3.354,8.579-4.818,13.519-5.673c4.727-0.819,9.529-1.022,14.26-1.858c5.662-1,10.191-3.591,13.253-8.554
		c0.629-1.02,1.378-1.965,2.007-2.985c0.729-1.183,1.613-1.475,2.79-0.67c0.226,0.833,0.007,1.552-0.492,2.245
		c-0.839,1.166-1.652,2.352-2.44,3.553c-3.044,4.639-7.303,7.483-12.694,8.709c-1.938,0.44-1.929,0.49-1.28,2.345
		c0.528,1.513,1.226,2.932,2.122,4.271C278.257,146.262,277.853,146.911,275.629,147.056z"/>
	<path style="fill-rule:evenodd;clip-rule:evenodd;fill:#5B3F3B;" d="M240.512,140.728c-0.479,0.281-0.944,0.59-1.44,0.836
		c-0.655,0.324-1.286,0.193-1.695-0.396c-0.402-0.577-0.341-1.226,0.149-1.755c0.267-0.289,0.614-0.504,0.923-0.754
		c6.947-5.632,10.161-13.133,10.772-21.858c0.5-7.133-1.058-13.944-3.615-20.562c-0.365-0.945-0.996-1.866-0.511-2.967
		c1.858-0.644,2.034-0.602,2.79,1.282c1.973,4.915,3.325,9.98,3.918,15.266c0.616,5.492,0.161,10.847-1.521,16.099
		c-1.743,5.443-4.636,10.156-8.959,13.948C241.027,140.125,240.78,140.439,240.512,140.728z"/>
	<path style="fill-rule:evenodd;clip-rule:evenodd;fill:#5C3F3B;" d="M248.878,77.943c-2.064-1.377-4.416-1.872-6.818-1.93
		c-3.994-0.096-7.993-0.003-11.99,0.001c-2.66,0.002-5.238-0.445-7.753-1.332c-1.003-0.354-1.684-0.878-1.773-1.991
		c0.635-0.872,1.361-1.169,2.46-0.721c3.637,1.485,7.453,1.418,11.28,1.135c4.483-1.379,8.909-0.777,13.311,0.412
		c0.853,0.23,1.624,0.64,2.067,1.474c3.591,2.052,6.606,4.729,8.897,8.19c0.307,0.465,0.581,0.953,0.857,1.437
		c0.387,0.675,0.161,1.286-0.378,1.696c-0.675,0.512-1.374,0.345-1.895-0.307c-0.397-0.497-0.712-1.058-1.089-1.573
		C254.11,81.778,251.961,79.344,248.878,77.943z"/>
	<path style="fill-rule:evenodd;clip-rule:evenodd;fill:#5C3F3B;" d="M152.6,164.756c0.128,0.231,0.255,0.461,0.383,0.692
		l0.139,0.158c0.265,0.489,0.574,0.96,0.784,1.473c0.243,0.591,0.001,1.122-0.488,1.46c-0.5,0.347-1.123,0.333-1.568-0.058
		c-0.471-0.414-0.857-0.945-1.206-1.476c-3.872-5.897-4.681-12.269-2.933-19.039c1.018-3.94,2.604-7.715,3.357-11.732
		c0.192-1.029,0.341-2.047,0.182-3.091c0.026-0.793,0.016-1.59,0.088-2.38c0.058-0.629,0.477-0.997,1.099-1.075
		c0.611-0.076,1.083,0.155,1.368,0.729c0.332,0.669,0.32,1.389,0.336,2.105c0.074,3.236-0.766,6.307-1.693,9.363
		c-1.039,3.424-2.338,6.778-2.746,10.372C149.192,156.772,150.123,160.94,152.6,164.756z"/>
	<path style="fill-rule:evenodd;clip-rule:evenodd;fill:#5C3F3B;" d="M213.572,162.842c-5.946-0.977-11.538,0.272-16.922,2.735
		c-1.372,0.628-2.699,1.36-4.024,2.084c-5.1,2.787-10.266,3.125-15.525,0.463c-0.42-0.713-0.799-1.473-0.052-2.16
		c0.615-0.566,1.362-0.336,2.021-0.015c4.255,2.071,8.334,1.495,12.322-0.761c4.042-2.286,8.235-4.178,12.875-4.905
		c2.764-0.432,5.532-0.644,8.326-0.372c0.793,0.078,1.648,0.037,1.987,0.979C214.935,161.878,214.137,162.309,213.572,162.842z"/>
	<path style="fill-rule:evenodd;clip-rule:evenodd;fill:#5C3F3B;" d="M180.49,23.458c-0.053,0.692-0.541,1.135-0.943,1.622
		c-1.93,2.34-3.741,4.766-5.368,7.329c-2.444,3.847-4.476,7.899-6.12,12.15c-0.785,2.03-1.292,2.498-2.274,2.188
		c-1.068-0.338-1.124-1.054-0.265-3.285c2.774-7.204,6.628-13.776,11.553-19.72c0.404-0.487,0.807-1.022,1.326-1.357
		C179.327,21.785,180.506,22.437,180.49,23.458z"/>
	<path style="fill-rule:evenodd;clip-rule:evenodd;fill:#5C403B;" d="M165.836,170.509c-1.306-0.648-2.612-1.297-3.918-1.945
		c-3.05-2.187-5.891-4.584-7.843-7.863c-0.365-0.612-0.713-1.24-1.011-1.887c-0.312-0.675-0.089-1.271,0.526-1.635
		c0.616-0.364,1.263-0.251,1.723,0.293c0.355,0.418,0.587,0.939,0.884,1.408c3.558,5.608,8.583,9.012,15.157,10.082
		c0.868,0.075,1.737,0.174,2.609,0.219c0.99,0.051,1.81,0.408,1.745,1.499c-0.065,1.1-0.965,1.319-1.926,1.303
		c-2.167-0.035-4.262-0.496-6.343-1.045C166.904,170.796,166.371,170.651,165.836,170.509z"/>
	<path style="fill-rule:evenodd;clip-rule:evenodd;fill:#FDFDFD;" d="M249.662,74.992c-4.026-1.649-8.238-2.03-12.537-1.854
		c-0.945,0.039-1.893-0.019-2.841-0.032c0.828-0.753,1.874-1.277,2.431-2.314c0.627-0.914,1.334-1.766,1.945-2.699
		c1.853-2.83,4.761-3.271,7.35-1.098c1.793,1.506,3.072,3.415,3.75,5.688C249.729,73.453,249.695,74.223,249.662,74.992z"/>
	<path style="fill-rule:evenodd;clip-rule:evenodd;fill:#5C403C;" d="M249.761,72.683c-0.772-0.386-1.05-1.158-1.426-1.849
		c-0.573-1.054-1.262-2.021-2.112-2.87c-2.78-2.773-5.718-2.348-7.477,1.175c-0.466,0.933-0.876,1.68-2.03,1.652
		c-0.96-0.632-1.059-1.435-0.651-2.48c1.901-4.873,7.648-6.541,11.463-2.921c1.462,1.386,2.714,2.917,3.552,4.748
		C251.739,71.579,251.511,71.955,249.761,72.683z"/>
	<path style="fill-rule:evenodd;clip-rule:evenodd;fill:#5C403C;" d="M158.893,67.631c0.855,0.376,1.089,1.061,1.038,1.945
		c-0.281,4.86,0.579,9.525,2.545,13.971c0.441,0.998,0.21,1.673-0.591,2.274c-0.973,0.022-1.61-0.376-2.013-1.317
		c-2.057-4.811-2.959-9.82-2.748-15.043C157.172,68.286,157.818,67.772,158.893,67.631z"/>
	<path style="fill-rule:evenodd;clip-rule:evenodd;fill:#5E423E;" d="M243.603,88.324c-1.173-1.408-1.272-1.899-0.054-2.63
		c2.313-1.388,3.592-3.558,4.857-5.78c2.216,0.108,2.656,0.714,1.707,2.542c-1.386,2.668-3.287,4.847-6.155,6.018l0.02,0.009
		l-0.151-0.164L243.603,88.324z"/>
	<path style="fill-rule:evenodd;clip-rule:evenodd;fill:#5F433E;" d="M163.325,90.037c1.237-0.84,2.387-1.813,3.873-2.244
		c0.772-0.224,1.548-0.337,2.338-0.338c0.813-0.001,1.391,0.394,1.446,1.246c0.047,0.722-0.362,1.289-1.081,1.327
		c-2.113,0.113-3.655,1.37-5.283,2.479C162.923,92.02,162.85,91.88,163.325,90.037z"/>
	<path style="fill-rule:evenodd;clip-rule:evenodd;fill:#FBC4B9;" d="M140.745,288.626c0.339,1.22,0.527,2.542,2.029,2.966
		c-0.269,7.884,1.396,15.523,3.077,23.139c2.205,9.991,5.338,19.701,9.44,29.088c0.414,0.947,0.843,1.899,0.944,2.953
		c0.026,0.991-0.128,1.895-1.164,2.359c-0.993,0.325-1.872,0.775-2.595,1.607c-6.878,7.916-13.101,16.301-18.048,25.565
		c-4.393,8.228-7.082,17.079-9.172,26.127c-1.869,8.091-3.186,16.285-4.567,24.468c-0.248,1.47-0.262,2.843,0.404,4.192
		c-0.003,1.425,0.867,3.386-1.899,3.129c-9.047-4.477-17.592-9.792-25.755-15.702c-35.382-25.614-60.706-58.882-75.758-99.915
		c-5.273-14.376-8.776-29.197-10.766-44.371c-1.657-12.636-2.18-25.34-1.449-38.052c2.805-48.771,20.275-91.608,52.344-128.477
		c0.314-0.361,0.647-0.706,0.978-1.053c0.053-0.056,0.136-0.083,0.352-0.21c0.919,0.87,1.19,3.035,3.271,2.052
		c0.907,0.319,1.395,0.88,1.098,1.898c-0.808,1.224-1.178,2.598-1.463,4.023c-5.453,27.295-9.869,54.751-12.825,82.435
		c-0.435,4.073-0.677,8.122,0.085,12.174c1.068,5.681,4.582,9.364,9.688,11.67c3.918,1.77,8.164,2.225,12.364,2.754
		c8.802,1.107,17.608,2.182,26.426,3.151c4.226,0.465,4.226,0.429,4.283,4.778c0.01,0.714-0.09,1.443,0.227,2.118
		c0.291,0.658,1.043,0.813,1.466,1.327c-0.499,0.874-0.483,1.735,0.061,2.585c0.268,1.881,1.54,2.861,3.145,3.593
		c2.354,1.073,4.857,1.614,7.382,1.98c7.746,1.121,12.508,5.857,15.626,12.656c1.645,3.587,2.475,7.412,3.3,11.238
		c0.941,4.368,1.646,8.787,3.079,13.044C137.399,283.039,138.703,286.014,140.745,288.626z"/>
	<path style="fill-rule:evenodd;clip-rule:evenodd;fill:#FBC4B9;" d="M297.7,381.73c0.328-0.67,0.839-1.351-0.113-1.946
		c0.701-0.456,1.135-1.021,1.169-1.935c0.317-8.753,3.422-16.722,7.306-24.367c15.804-31.115,30.653-62.697,46.064-94.004
		c1.906-3.872,4.516-7.148,7.632-10.061c3.51-3.278,7.26-6.269,11.146-9.089c4.764-3.459,10.164-5.253,15.916-6.214
		c12.604-2.108,25.074-4.896,37.569-7.554c0.383-0.081,0.768-0.149,1.158-0.225c9.386,79.052-32.712,172.629-123.386,212.98
		c-0.801-3.743-1.704-7.438-2.814-11.078c-0.228-0.747-0.201-1.58-0.239-2.376c-0.381-8.033,0.47-15.948,2.156-23.803
		c1.176-5.476,2.007-11.005,1.737-16.645c-0.051-1.059-0.179-2.086-0.701-3.002c-0.874-1.53-2.146-1.715-3.695-0.603
		C298.278,382.061,297.974,382.071,297.7,381.73z"/>
	<path style="fill-rule:evenodd;clip-rule:evenodd;fill:#527B6F;" d="M297.7,381.73c0.302,0.026,0.604,0.053,0.904,0.08
		c0.077,0.464-0.085,1.096,0.361,1.339c1.42,0.773,1.231,2.099,1.278,3.351c0.197,5.317-0.685,10.525-1.782,15.686
		c-1.64,7.701-2.477,15.457-2.184,23.333c0.048,1.29,0.16,2.569,0.512,3.792c0.883,3.072,1.775,6.139,2.375,9.281
		c0.124,0.646,0.532,1.106,1.066,1.692c-3.37,1.83-6.952,2.713-10.213,4.329c-1.906,0.815-1.979-0.632-2.106-1.8
		c-0.548-4.994-0.703-10.019-0.994-15.03c-0.152-2.633-0.49-5.239-0.753-7.856c-0.077-0.764-0.201-1.554-1.076-2.11
		c0.877,9.262,0.635,18.578,2.024,27.789c-6.003,1.915-11.967,3.951-18.078,5.519c-6.342,1.627-12.742,2.961-19.195,4.052
		c-0.467,0.079-0.953,0.047-1.432,0.065c-1.129,0.572-2.451-0.212-3.56,0.505l-0.172-0.019c-2.051,0.124-4.059,0.625-6.117,0.683
		c-7.044,0.806-14.126,1.092-21.201,1.108c-5.018,0.013-10.045-0.086-15.067-0.201c-6.479-0.179-12.877-1.085-19.356-2.049
		c0.333-3.604,0.076-7.091,0.313-10.587c0.534-7.868,2.286-15.475,4.445-23.016c0.374-1.306,0.748-2.612,1.06-3.934
		c0.188-0.799,0.265-1.688-0.757-1.993c-1.104-0.329-1.588,0.381-1.862,1.332c-2.08,7.217-4.133,14.439-5.076,21.919
		c-0.65,5.152-0.858,10.324-0.566,15.562c-1.194,0.389-2.171-0.123-3.147-0.298c-13.877-2.494-27.435-6.136-40.502-11.483
		c-6.06-2.48-12.013-5.193-17.649-8.552c0.897-0.068,1.518-0.384,1.433-1.448c-0.05-0.631-0.018-1.268-0.022-1.902
		c1.179-1.419,1.428-3.158,1.713-4.895c1.583-9.615,3.271-19.204,5.669-28.665c3.64-14.364,10.548-27.014,19.744-38.505
		c1.696-2.119,3.309-4.311,5.187-6.28c1.019-1.067,1.668-2.316,1.851-3.793c1.095-0.261,0.822-1.216,0.989-1.948
		c0.951,0.024,1.168,0.718,1.333,1.461c0.167,0.909,0.334,1.818,0.501,2.729c-0.049,1.738,0.599,3.228,1.436,4.732
		c3.809,6.85,7.723,13.624,12.479,19.879c8.136,10.699,18.575,17.79,31.75,20.923c7.845,1.864,15.645,2.743,23.733,2.018
		c6.968-0.625,13.999-1.261,21.015,0.187c2.393,0.494,4.968,0.438,7.396-0.131c10.889-2.554,21.864-4.771,32.521-8.249
		c2.063-0.673,3.979-1.654,5.938-2.56c1.414-0.654,2.128-1.608,1.921-3.181C296.42,383.637,297.061,382.684,297.7,381.73z"/>
	<path style="fill-rule:evenodd;clip-rule:evenodd;fill:#FFFFFF;" d="M63.471,110.058c-0.354-0.521-0.707-1.043-1.061-1.565
		c0.4-0.973,0.183-1.86-0.321-2.741c-1.637-2.859-2.122-5.945-2.072-9.225c0.065-4.244,0.301-8.47,0.652-12.695
		c0.045-0.545-0.014-1.127,0.456-1.775c0.581,0.092,0.928,0.667,1.412,0.985c1.773,1.163,3.659,1.602,5.678,0.751
		c0.695-0.292,1.295-0.416,2.039-0.133c0.738,0.28,1.599,0.536,2.352,0.255c1.736-0.647,2.803,0.428,4.16,1.284
		c-2.609,2.74-4.623,5.683-5.842,9.118c-0.24,0.677-0.501,1.355-0.641,2.055c-0.158,0.792,0.137,1.438,0.98,1.66
		c0.726,0.19,1.268-0.154,1.562-0.797c0.264-0.577,0.438-1.197,0.631-1.804c1.383-4.362,4.384-7.565,7.678-10.51
		c0.772-0.69,1.784-1.101,2.993-0.147c3.709,2.925,6.616,0.261,7.446-2.848c0.438-1.639,0.374-3.332,0.547-4.998
		c0.151-1.457,0.372-2.845,1.514-3.923c0.671-0.633,0.849-1.436,0.074-2.076c-0.731-0.604-1.491-0.328-2.144,0.29
		c-1.49,1.409-1.998,3.229-2.156,5.184c-0.128,1.591-0.032,3.206-0.49,4.761c-0.7,2.373-2.059,2.727-3.777,0.904
		c-1.706-1.81-2.264-4.064-1.845-6.454c0.714-4.08,2.502-7.739,4.886-11.091c1.052-1.479,1.269-1.459,2.643-0.32
		c0.92,0.764,1.792,1.597,2.614,2.466c2.539,2.678,4.046,5.642,3.189,9.546c-0.735,3.35-1.096,6.78-1.666,10.168
		c-0.141,0.836-0.357,1.59-1.176,2.212c-0.92,0.698-0.618,1.827,0.511,2.199c0.976,0.322,2.025,0.441,3.052,0.586
		c3.333,0.472,6.629,1.031,9.602,2.769c2.439,1.426,4.252,3.353,5.112,6.09c0.119,0.38,0.258,0.761,0.321,1.151
		c0.517,3.209-0.099,3.764-3.114,2.766c-3.872-1.282-7.76-2.498-11.83-2.984c-3.544-0.424-7.021-0.154-10.385,1.115
		c-0.521,0.196-1.067,0.382-1.522,0.691c-0.802,0.543-1.025,1.583-0.313,2.03c1.437,0.902,0.528,1.519,0,2.241
		c-0.282,0.385-0.621,0.731-0.953,1.077c-0.594,0.619-1.032,1.332-0.506,2.138c0.654,1.003,1.517,0.546,2.32,0.136
		c0.653,1.762,0.653,1.762-1.019,2.816c0.46,5.685-0.196,11.328-0.845,16.946c-1.179,10.221-1.042,20.389,0.296,30.584
		c1.092,8.318,2.054,16.671,0.133,25.021c-0.09,0.389-0.104,0.792-0.05,1.191c0.022,0.166,0.097,0.303,0.372,0.572
		c0.911-0.648,0.89-1.742,1.144-2.645c0.476-1.695,1.43-2.149,3.052-1.474c3.187,1.328,6.001,3.338,9.061,4.897
		c1.005,0.513,1.22,1.637,1.441,2.658c1.033,4.771,1.772,9.588,1.958,14.47c0.067,1.763,0.542,3.478,0.484,5.246
		c-0.112,4.235,0.007,8.473-0.062,12.708c-0.022,1.386-0.16,2.518-2.149,2.204c-10.738-1.688-21.584-2.546-32.333-4.146
		c-4.774-0.711-9.39-1.904-13.052-5.437c-3.029-2.922-4.104-6.531-4.272-10.591c-0.346-8.365,1.115-16.57,2.151-24.807
		c2.787-22.134,6.486-44.122,10.879-65.992C63.593,113.223,63.52,111.65,63.471,110.058z"/>
	<path style="fill-rule:evenodd;clip-rule:evenodd;fill:#FDFDFD;" d="M75.163,75.382c-0.102-2.163,0.105-4.294,0.74-6.374
		c0.33-1.08,0.814-2.074,1.534-2.946c1.594-1.932,3.643-2.204,5.704-0.829c0.657,0.438,0.792,0.859,0.455,1.575
		c-0.744,1.583-1.509,3.166-2.106,4.807c-1.058,2.904-1.467,5.889-0.393,8.888c0.374,1.043-0.024,1.439-0.934,1.731
		c-2.395,0.767-4.044-0.113-4.714-2.577c-0.125-0.46-0.251-0.935-0.272-1.407C75.133,77.295,75.163,76.338,75.163,75.382z"/>
	<path style="fill-rule:evenodd;clip-rule:evenodd;fill:#5D3F3B;" d="M287.113,445.605c-0.785-0.804-1.326-1.628-1.393-2.879
		c-0.434-8.198-0.57-16.421-1.827-24.559c-0.134-0.868,0.026-1.617,1.008-1.879c0.879-0.234,1.478,0.289,1.745,1.475
		c0.018,0.078,0.019,0.159,0.027,0.238c0.305,2.692,0.709,5.379,0.895,8.079c0.398,5.809,0.729,11.622,0.979,17.438
		c0.053,1.243,0.613,1.227,1.472,1.094C289.203,445.394,288.192,445.6,287.113,445.605z"/>
	<path style="fill-rule:evenodd;clip-rule:evenodd;fill:#FBFAFA;" d="M74.537,65.173c-2.521,4.703-2.296,9.769-1.865,14.858
		c0.094,1.112-0.234,1.426-1.267,1.145c-1.171-0.32-1.938-1.063-2.224-2.256c-0.805-3.346-1.195-6.73-0.844-10.169
		c0.056-0.545,0.241-1.089,0.438-1.606C69.834,64.367,71.574,63.752,74.537,65.173z"/>
	<path style="fill-rule:evenodd;clip-rule:evenodd;fill:#FCFBFB;" d="M66.932,81.221c-1.235,0.467-2.213,0.076-3.102-0.692
		c-1.338-1.156-1.999-2.678-2.236-4.386c-0.259-1.854,0.017-3.674,0.591-5.439c0.274-0.841,0.711-1.618,1.489-2.122
		c0.419-0.271,0.896-0.371,1.375-0.219c0.653,0.207,0.418,0.771,0.4,1.207C65.295,73.506,65.911,77.347,66.932,81.221z"/>
	<path style="fill-rule:evenodd;clip-rule:evenodd;fill:#FEFEFE;" d="M356.685,15.408c0.045-0.391,0.022-1.055,0.209-1.652
		c0.58-1.859,1.111-3.21,3.538-2.167c0.43,0.185,0.937,0.185,1.404,0.288c0.761,0.168,1.179,0.479,1.216,1.429
		c0.233,5.995,2.742,11.069,6.491,15.626c0.421,0.512,1.368,0.899,0.982,1.743c-0.488,1.067-0.533,2.39-1.604,3.143
		c-0.703,0.494-1.474,0.518-2.281,0.187c-0.906-0.372-1.704-0.903-2.348-1.622c-3.935-4.391-6.257-9.584-7.517-15.292
		C356.673,16.629,356.719,16.135,356.685,15.408z"/>
	<path style="fill-rule:evenodd;clip-rule:evenodd;fill:#FEFEFE;" d="M352.036,19.335c0.319,0,0.647,0.051,0.954-0.009
		c1.098-0.218,1.547,0.31,1.828,1.313c0.734,2.614,1.861,5.082,3.146,7.462c1.789,3.312,3.742,6.516,7.28,8.3
		c0.63,0.317,0.752,0.777,0.535,1.37c-0.19,0.521-0.394,1.047-0.665,1.529c-0.773,1.381-1.518,1.625-2.944,0.955
		c-0.951-0.448-1.786-1.099-2.36-1.974c-2.286-3.486-5.168-6.46-7.999-9.485c-1.26-1.346-2.259-2.881-2.777-4.684
		c-0.088-0.306-0.19-0.61-0.253-0.921C348.214,20.352,349.195,19.185,352.036,19.335z"/>
	<path style="fill-rule:evenodd;clip-rule:evenodd;fill:#FEFEFE;" d="M357.32,40.252c0.025,2.069-1.221,3.048-2.948,2.38
		c-3.312-1.28-6.348-3.04-8.65-5.806c-2.014-2.419-3.146-5.168-2.502-8.404c0.231-1.159,1.972-2.498,3.103-2.401
		c0.449,0.039,0.638,0.409,0.815,0.775c1.244,2.558,3.181,4.572,5.165,6.544c1.648,1.638,3.084,3.445,4.382,5.369
		C357.045,39.245,357.455,39.748,357.32,40.252z"/>
	<path style="fill-rule:evenodd;clip-rule:evenodd;fill:#F4F5F5;" d="M440.212,150.327c-0.121,0.194-0.243,0.389-0.364,0.583
		C439.87,150.653,439.956,150.437,440.212,150.327z"/>
	<path style="fill-rule:evenodd;clip-rule:evenodd;fill:#5B3E3A;" d="M101.416,210.901c-0.575-4.669-0.651-9.391-1.464-14.033
		c-0.398-2.276-0.862-4.54-1.293-6.812c-0.122-0.642-0.212-1.234-1.137-1.186c-0.851,0.044-1.437-0.633-2.099-1.055
		c-2.551-1.63-5.198-3.076-8.165-4.447c-0.273,1.253-0.498,2.379-0.77,3.492c-0.15,0.615-0.324,1.238-0.588,1.811
		c-0.268,0.578-0.833,0.719-1.428,0.603c-0.642-0.126-0.937-0.603-0.943-1.21c-0.006-0.473,0.063-0.958,0.181-1.418
		c1.746-6.854,1.381-13.777,0.63-20.702c-0.98-9.041-2.382-18.055-1.638-27.195c0.311-3.817,0.682-7.629,1.074-11.438
		c0.401-3.893,0.729-7.789,0.602-11.705c-0.027-0.841,0.044-1.589,0.686-2.191c1.461-0.149,1.985,0.575,2.009,1.97
		c0.053,3.042-0.001,6.079-0.25,9.108c-0.412,5.018-1.008,10.019-1.431,15.038c-0.399,4.738-0.091,9.433,0.323,14.128
		c0.4,4.537,0.996,9.056,1.493,13.583c0.499,4.538,0.502,9.088,0.268,13.697c2.682,0.279,4.686,1.936,7.072,3.048
		c1.904-3.234,4.965-3.192,8.143-2.634c2.593,0.456,5.064,1.435,7.701,1.751c5.324,0.639,10.507-0.344,15.718-1.166
		c6.694-1.057,13.043-3.035,18.91-6.503c1.433-0.847,3.028-1.435,4.584-2.052c3.507-1.391,7.112-1.75,10.807-0.845
		c0.468,0.604,1.283,1.109,0.679,2.048c-0.526,0.817-1.255,0.74-2.112,0.537c-2.982-0.706-5.881-0.196-8.673,0.898
		c-1.629,0.639-3.24,1.37-4.76,2.234c-5.257,2.992-10.839,4.975-16.818,5.95c-4.408,0.72-8.774,1.657-13.265,1.803
		c-3.543,0.114-7.009-0.231-10.411-1.23c-1.3-0.382-2.604-0.728-3.963-0.882c-1.585-0.181-3.025,0.006-4.288,1.297
		c0.676,0.732,1.392,1.555,2.43,1.542c1.447-0.018,1.747,0.901,1.954,1.948c0.558,2.814,1.177,5.625,1.581,8.463
		c1.693,11.902,1.569,23.885,1.481,35.864c-0.005,0.667-0.161,1.252-0.49,1.811c-0.68,0.088-1.435,0.503-1.881-0.431
		c-0.509-2.982-0.19-5.99-0.259-8.985C101.505,220.572,101.888,215.73,101.416,210.901z"/>
	<path style="fill-rule:evenodd;clip-rule:evenodd;fill:#5B3E3A;" d="M295.779,384.59c1.452,1.479,1.428,2.024-0.272,3.036
		c-4.015,2.391-8.376,3.978-12.874,5.112c-8.745,2.205-17.531,4.248-26.296,6.375c-3.087,0.75-6.207,0.716-9.286,0.189
		c-4.768-0.814-9.513-0.797-14.324-0.465c-6.447,0.446-12.905,1.127-19.384,0.291c-17.082-2.203-31.758-8.73-42.305-23.015
		c-5.242-7.1-9.626-14.695-13.836-22.417c-0.58-1.063-0.643-1.945,0.389-2.726c1.3-0.109,1.77,0.816,2.271,1.764
		c2.279,4.303,4.647,8.556,7.217,12.693c4.147,6.677,8.787,12.95,14.735,18.168c5.252,4.605,11.337,7.587,17.958,9.736
		c9.586,3.113,19.328,4.013,29.315,2.99c6.772-0.693,13.548-0.785,20.279,0.482c1.928,0.363,3.862,0.232,5.713-0.217
		c9.453-2.295,18.974-4.318,28.348-6.938c3.776-1.055,7.409-2.479,10.803-4.47C294.714,384.896,295.205,384.635,295.779,384.59z"/>
	<path style="fill-rule:evenodd;clip-rule:evenodd;fill:#5C3E3A;" d="M140.745,288.626c-1.192-0.162-1.688-1.092-2.209-1.998
		c-2.258-3.921-3.504-8.2-4.484-12.577c-0.976-4.36-1.615-8.793-2.879-13.09c-1.044-3.544-2.44-6.923-4.591-9.955
		c-2.659-3.748-6.166-6.18-10.736-7.026c-2.196-0.407-4.379-0.889-6.551-1.41c-1.801-0.432-3.437-1.245-4.948-2.336
		c-1.119-0.808-1.367-1.695-0.527-2.827c0.744-0.163,1.402-0.036,2.009,0.467c2.043,1.692,4.556,2.208,7.052,2.744
		c1.012,0.218,2.037,0.376,3.057,0.557c5.833,1.031,10.263,4.136,13.469,9.073c2.913,4.486,4.486,9.478,5.575,14.654
		c0.639,3.039,1.25,6.086,1.904,9.122c0.894,4.147,2.135,8.175,4.402,11.807C142.008,286.989,141.994,287.899,140.745,288.626z"/>
	<path style="fill-rule:evenodd;clip-rule:evenodd;fill:#5C3E3A;" d="M157.09,348.243c-0.683-0.271-0.869-0.994-1.333-1.463
		c-3.568-8.27-6.678-16.702-9.009-25.414c-2.395-8.949-4.038-18.027-4.921-27.249c-0.103-1.067,0.16-1.86,0.948-2.525
		c1.273,0.089,1.725,0.805,1.831,2.043c1.542,17.978,6.244,35.13,13.544,51.6C159.041,347.247,158.934,347.489,157.09,348.243z"/>
	<polygon style="fill-rule:evenodd;clip-rule:evenodd;fill:#84C9D5;" points="153.122,165.606 152.979,165.586 152.981,165.446 
		153.107,165.475 	"/>
	<path style="fill-rule:evenodd;clip-rule:evenodd;fill:#5C3E3A;" d="M204.464,131.844c-1.015,0.019-2.301-0.369-3.552-0.942
		c-3.145-1.441-5.959-3.404-8.711-5.469c-0.59-0.443-1.178-0.913-0.986-1.758c0.222-0.979,1.032-1.061,1.861-1.153
		c7.691-0.855,13.196-5.231,17.776-11.083c0.197-0.251,0.335-0.554,0.555-0.779c0.904-0.925,2.016-0.661,2.347,0.583
		c0.143,0.534,0.146,1.107,0.187,1.665c0.223,3.029,0.493,6.056,0.645,9.089C214.862,127.567,210.584,131.857,204.464,131.844z"/>
	<path style="fill-rule:evenodd;clip-rule:evenodd;fill:#5D403C;" d="M187.802,102.156c0.096,0.771-0.21,1.806-0.626,2.726
		c-0.949,2.1,0.143,3.385,1.912,4.182c0.652,0.293,1.367,0.452,2.002,0.773c0.635,0.321,0.891,0.914,0.645,1.615
		c-0.239,0.68-0.782,1.093-1.479,0.901c-2.013-0.554-3.999-1.224-5.26-3.063c-0.846-1.232-1.323-2.599-0.727-4.069
		c1.178-2.909,0.754-5.614-0.868-8.212c-0.167-0.267-0.322-0.56-0.396-0.862c-0.167-0.682-0.003-1.262,0.656-1.631
		c0.705-0.395,1.314-0.104,1.668,0.449C186.672,97.064,187.746,99.28,187.802,102.156z"/>
	<path style="fill-rule:evenodd;clip-rule:evenodd;fill:#5D403C;" d="M199.104,69.579c0.669,0,1.152-0.043,1.624,0.01
		c0.732,0.082,1.17,0.524,1.169,1.272c0,0.721-0.358,1.219-1.116,1.316c-0.395,0.051-0.798,0.034-1.197,0.065
		c-3.71,0.296-7.105,1.188-9.19,4.698c-0.438,0.738-1.129,1.197-2.004,0.583c-0.833-0.585-0.708-1.341-0.258-2.11
		c1.97-3.365,5.075-4.966,8.777-5.612C197.694,69.665,198.499,69.638,199.104,69.579z"/>
	<path style="fill-rule:evenodd;clip-rule:evenodd;fill:#60433F;" d="M208.394,86.974c-0.049,1.246-0.76,1.919-1.983,1.879
		c-1.255-0.041-2.885-1.982-2.844-3.386c0.034-1.13,0.883-1.89,2.065-1.847C207.152,83.676,208.461,85.266,208.394,86.974z"/>
	<path style="fill-rule:evenodd;clip-rule:evenodd;fill:#614540;" d="M179.568,101.644c0.049,1.227-0.627,2.017-1.792,2.093
		c-1.242,0.081-2.946-1.684-3.049-3.158c-0.08-1.154,0.667-1.988,1.833-2.047C178.085,98.453,179.5,99.916,179.568,101.644z"/>
	<path style="fill-rule:evenodd;clip-rule:evenodd;fill:#84C9D5;" d="M243.603,88.324c0.192-0.104,0.312-0.038,0.375,0.16
		l-0.229,0.007L243.603,88.324z"/>
	<path style="fill-rule:evenodd;clip-rule:evenodd;fill:#5B3E3A;" d="M101.416,210.901c0.735,0.725,0.436,1.651,0.439,2.492
		c0.026,6.999,0.019,13.998,0.021,20.997c-0.706-0.547-0.406-1.325-0.421-2.006c-0.041-1.747-0.014-3.496-0.014-5.5
		c-1.031,0.825-2.001,0.712-3.051,0.581c-8.722-1.087-17.453-2.101-26.178-3.159c-4.044-0.49-8.09-0.978-11.97-2.329
		c-7.746-2.7-11.75-8.12-12.149-16.323c-0.259-5.307,0.494-10.537,1.142-15.765c1.121-9.037,2.369-18.06,3.643-27.076
		c1.823-12.893,4.063-25.717,6.506-38.505c0.75-3.922,1.503-7.843,2.304-11.754c0.216-1.058,0.285-2.313,1.782-2.497
		c1.407,0.58,1.18,1.706,0.956,2.838c-0.713,3.603-1.433,7.204-2.129,10.81c-2.467,12.783-4.645,25.613-6.575,38.489
		c-1.741,11.616-3.253,23.261-4.563,34.931c-0.454,4.046-0.739,8.118,0.235,12.164c0.978,4.066,3.312,7.008,7.016,8.916
		c4.064,2.094,8.502,2.689,12.942,3.238c9.356,1.158,18.718,2.27,28.083,3.362c0.663,0.077,1.186,0.415,1.983,0.661
		C101.701,220.564,101.273,215.729,101.416,210.901z"/>
	<path style="fill-rule:evenodd;clip-rule:evenodd;fill:#5B3E3A;" d="M154.768,348.73c0.915,0.95,0.658,1.804-0.122,2.72
		c-1.861,2.188-3.66,4.428-5.503,6.631c-11.993,14.336-19.444,30.764-22.817,49.118c-1.312,7.132-2.622,14.263-3.802,21.417
		c-0.197,1.196-0.435,2.221-1.921,2.252c-0.815-0.432-1.09-1.121-0.934-2.001c2.655-14.98,4.659-30.111,10.311-44.397
		c4.183-10.573,10.387-19.91,17.475-28.71c1.602-1.988,3.268-3.926,4.893-5.896C152.981,349.095,153.641,348.424,154.768,348.73z"/>
	<path style="fill-rule:evenodd;clip-rule:evenodd;fill:#5C3E3A;" d="M248.705,420.872c-2.988-0.101-6.578-0.185-10.134-0.754
		c-0.955-0.153-1.79-0.574-1.622-1.663c0.168-1.092,1.099-1.247,2.055-1.103c3.716,0.56,7.446,0.913,11.209,0.808
		c13.752-0.383,26.38-4.3,37.783-12.052c0.593-0.403,1.158-0.865,1.793-1.188c0.699-0.355,1.416-0.313,1.893,0.432
		c0.419,0.655,0.17,1.232-0.34,1.704c-0.35,0.324-0.746,0.6-1.139,0.873c-9.604,6.697-20.207,10.798-31.822,12.342
		C255.36,420.673,252.335,420.72,248.705,420.872z"/>
	<path style="fill-rule:evenodd;clip-rule:evenodd;fill:#5C3E3A;" d="M232.367,427.388c0.002-1.102-0.403-2.289,0.993-2.714
		c0.913-0.277,1.458,0.43,1.705,2.336c0.328,2.532,0.617,5.065,1.168,7.567c1.326,6.009,4.686,10.381,10.222,13.112
		c2.228,1.1,4.509,2.033,6.882,2.754c0.534,0.162,1.07,0.32,1.605,0.479c0.833,0.249,1.484,0.69,1.385,1.667
		c-0.082,0.804-1.02,1.283-2.077,0.99c-4.878-1.354-9.563-3.141-13.583-6.336c-3.375-2.683-5.485-6.206-6.664-10.293
		C233.095,433.799,232.599,430.562,232.367,427.388z"/>
	<path style="fill-rule:evenodd;clip-rule:evenodd;fill:#5C3F3B;" d="M142.22,403.859c-3.404,0.025-6.665-0.748-9.902-1.657
		c-0.307-0.086-0.616-0.186-0.901-0.325c-0.75-0.367-1.062-0.972-0.774-1.773c0.254-0.709,0.848-0.926,1.545-0.782
		c0.624,0.129,1.231,0.338,1.848,0.506c4.208,1.146,8.446,1.736,12.781,0.737c2.796-0.645,5.232-1.923,7.243-3.988
		c0.71-0.729,1.367-1.775,2.575-0.806c0.802,0.645,0.578,1.542-0.7,2.836C152.159,402.433,147.427,403.773,142.22,403.859z"/>
	<path style="fill-rule:evenodd;clip-rule:evenodd;fill:#5D3F3B;" d="M215.685,421.453c-3.824-0.647-7.121-1.537-10.361-2.655
		c-3.242-1.119-6.359-2.515-9.38-4.132c-0.489-0.262-0.971-0.551-1.409-0.889c-0.492-0.381-0.616-0.944-0.385-1.505
		c0.286-0.691,0.903-0.908,1.579-0.729c0.528,0.141,1.026,0.419,1.514,0.681c5.434,2.918,11.149,5.049,17.22,6.195
		c0.469,0.089,0.931,0.211,1.395,0.322c0.806,0.193,1.305,0.696,1.167,1.531C216.865,421.239,216.137,421.5,215.685,421.453z"/>
	<path style="fill-rule:evenodd;clip-rule:evenodd;fill:#5D3F3B;" d="M201.359,403.05c-0.051,3.147-2.997,5.745-6.291,5.549
		c-3.098-0.185-5.256-2.808-4.854-5.912c0.137-1.058,0.539-2.006,1.341-2.735c0.6-0.545,1.307-0.657,1.959-0.151
		c0.583,0.452,0.606,1.086,0.249,1.722c-0.078,0.139-0.185,0.26-0.276,0.392c-0.72,1.044-0.724,2.109,0.05,3.098
		c0.672,0.858,1.66,0.929,2.628,0.693c1.256-0.306,2.126-1.11,2.431-2.387c0.235-0.983-0.371-1.485-1.233-1.708
		c-0.887-0.229-1.53-0.695-1.231-1.671c0.33-1.076,1.293-1.05,2.193-0.909C200.136,399.313,201.392,401,201.359,403.05z"/>
	<path style="fill-rule:evenodd;clip-rule:evenodd;fill:#5D3F3B;" d="M224.26,417.436c0.081,1.033,0.151,2.068,0.245,3.101
		c0.088,0.97-0.09,1.854-1.209,1.967c-1.168,0.117-1.417-0.766-1.486-1.726c-0.284-3.896-0.579-7.793-0.868-11.688
		c-0.118-1.59-0.229-3.181-0.345-4.771c-0.017-0.239-0.044-0.477-0.063-0.716c-0.081-0.979,0.205-1.875,1.253-1.979
		c1.086-0.107,1.452,0.75,1.526,1.73c0.114,1.511,0.272,3.018,0.374,4.529c0.214,3.183,0.404,6.366,0.604,9.55
		C224.279,417.434,224.27,417.435,224.26,417.436z"/>
	<path style="fill-rule:evenodd;clip-rule:evenodd;fill:#5D3F3B;" d="M227.991,417.254c0.187-3.854-0.327-7.64-1.146-11.396
		c-0.151-0.694-0.212-1.417-0.233-2.13c-0.016-0.531,0.361-0.893,0.837-1.053c0.6-0.201,1.119,0.046,1.453,0.545
		c0.215,0.323,0.354,0.721,0.438,1.104c1.212,5.562,1.971,11.159,1.3,16.866c-0.019,0.159-0.024,0.319-0.044,0.478
		c-0.101,0.81-0.497,1.389-1.365,1.362c-0.89-0.025-1.222-0.663-1.233-1.467C227.977,420.128,227.991,418.69,227.991,417.254z"/>
	<path style="fill-rule:evenodd;clip-rule:evenodd;fill:#5E403C;" d="M185.525,405.544c-0.23-3.113,0.172-6.202,0.32-9.303
		c0.019-0.394,0.047-0.809,0.188-1.168c0.223-0.567,0.696-0.847,1.323-0.806c0.533,0.034,0.861,0.353,1.092,0.804
		c0.229,0.448,0.209,0.927,0.156,1.402c-0.546,4.843-0.325,9.702-0.313,14.558c0,0.159,0.017,0.318,0.015,0.478
		c-0.028,1.462-0.447,2.172-1.33,2.106c-1.304-0.097-1.414-1.135-1.437-2.101C185.493,409.525,185.525,407.534,185.525,405.544z"/>
	<path style="fill-rule:evenodd;clip-rule:evenodd;fill:#5D3F3B;" d="M163.645,396.877c0.498-5.474,2.11-10.619,4.567-15.518
		c0.446-0.889,1.099-1.479,2.091-0.966c1.048,0.544,0.736,1.436,0.325,2.278c-1.649,3.385-2.966,6.885-3.665,10.598
		c-0.25,1.332-0.485,2.668-0.672,4.01c-0.134,0.957-0.402,1.835-1.559,1.662C163.592,398.77,163.578,397.8,163.645,396.877z"/>
	<path style="fill-rule:evenodd;clip-rule:evenodd;fill:#5D3F3B;" d="M158.436,389.764c0.042-0.215,0.089-0.614,0.198-0.995
		c1.309-4.573,3.369-8.76,6.435-12.425c0.256-0.305,0.51-0.614,0.793-0.894c0.575-0.568,1.293-0.769,1.941-0.267
		c0.787,0.609,0.589,1.4,0.057,2.108c-0.382,0.509-0.823,0.975-1.21,1.48c-2.397,3.135-4.156,6.594-5.25,10.388
		c-0.132,0.459-0.267,0.917-0.406,1.374c-0.241,0.791-0.779,1.247-1.599,1.077C158.536,391.433,158.351,390.73,158.436,389.764z"/>
	<path style="fill-rule:evenodd;clip-rule:evenodd;fill:#5D3F3B;" d="M182.963,405.999c0.053,0.861-0.665,1.446-1.591,1.3
		c-0.583-0.092-1-0.482-1.449-0.808c-3.625-2.625-7.251-5.247-10.865-7.888c-1.368-0.999-1.697-1.75-1.173-2.479
		c0.528-0.735,1.448-0.696,2.738,0.229c3.704,2.652,7.39,5.329,11.072,8.012C182.264,404.778,182.929,405.154,182.963,405.999z"/>
	<path style="fill-rule:evenodd;clip-rule:evenodd;fill:#5D3F3B;" d="M147.065,372.243c0.675-0.009,1.089,0.364,1.462,0.786
		c3.057,3.455,6.11,6.914,9.162,10.373c0.642,0.729,0.996,1.533,0.117,2.283c-0.9,0.77-1.622,0.191-2.24-0.507
		c-3.003-3.396-5.999-6.8-8.996-10.201c-0.317-0.36-0.629-0.733-0.643-1.244C145.906,372.908,146.255,372.365,147.065,372.243z"/>
	<path style="fill-rule:evenodd;clip-rule:evenodd;fill:#EE9FA2;" d="M211.18,115.683c0.466,2.479,0.632,4.618,0.616,6.762
		c-0.035,4.668-4.397,7.797-8.796,6.313c-0.976-0.33-1.909-0.815-2.813-1.316c-1.244-0.689-2.511-1.36-3.806-2.525
		c2.862-1.006,5.558-1.875,7.896-3.512C206.63,119.759,208.763,117.848,211.18,115.683z"/>
</g>
</svg>
